# xmcd
#
# Track frame offsets: 
#        150
#        13361
#        22802
#        35132
#        50092
#        62539
#        75902
#        87469
#        102302
#        113888
#        128502
#        142674
#        157402
#        171164
#        184271
#        197618
#        208854
#        220930
#        234362
#        249850
#        263243
#        278579
#        292466
#        308579
#        322145
#
# Disc length: 4444 seconds
#
# Revision: 0
# Processed by: cddbd v1.5.2PL0 Copyright (c) Steve Scherf et al.
# Submitted via: ExactAudioCopy v0.95b4
#
DISCID=6d115a19
DTITLE=Various Artist - The Ultimate Vocal Collection [The Ladies]
DYEAR=2006
DGENRE=Vocal
TTITLE0=Garland Judy/The Trolley Song
TTITLE1=Dietrich Marlene/The Boys in the Backroom
TTITLE2=Shore Dinah/The Nearness of You
TTITLE3=Brewer Teresa/Music Music Music
TTITLE4=Lawrence Gertrude/Someone to Watch Over Me
TTITLE5=Page Patti/The Tennessee Waltz
TTITLE6=Fitzgerald Ella/Goody Goody
TTITLE7=Vaughan Sarah/Black Coffee
TTITLE8=Andrews Sisters/Straighten Up and Fly Right
TTITLE9=Lee Peggy/Why Don't You Do Right
TTITLE10=Day Doris/Put 'em in a Box, Tie 'em with a Ribbon
TTITLE11=Shelton Anne/Blueberry Hill
TTITLE12=Kitt Eartha/My heart belongs to daddy
TTITLE13=Lynn Vera/When You Wish Upon a Star
TTITLE14=Holiday Billie/God Bless the Child
TTITLE15=Starr Kay/Bonaparte's Retreat
TTITLE16=Barton Eileen/If I Knew You Were Comin' I'd've Baked a Cake
TTITLE17=Stafford Jo/Long Ago and Far Away
TTITLE18=Merman Ethel/How deep is the ocean
TTITLE19=Bailey Mildred/I've got my love to keep me warm
TTITLE20=Piaf Edith/L'accordeoniste
TTITLE21=Fields Gracie/In A Little Lancashire Town
TTITLE22=Dunne Irene/Lovely to Look At
TTITLE23=Clooney Rosemary/Suzy Snowflake
TTITLE24=Miranda Carmen/Chica Chica Boom Chic
EXTD=
EXTT0=
EXTT1=
EXTT2=
EXTT3=
EXTT4=
EXTT5=
EXTT6=
EXTT7=
EXTT8=
EXTT9=
EXTT10=
EXTT11=
EXTT12=
EXTT13=
EXTT14=
EXTT15=
EXTT16=
EXTT17=
EXTT18=
EXTT19=
EXTT20=
EXTT21=
EXTT22=
EXTT23=
EXTT24=
PLAYORDER=
